<?xml version="1.0" encoding="UTF-8" standalone="no"?>
<svg
   xmlns:dc="http://purl.org/dc/elements/1.1/"
   xmlns:cc="http://creativecommons.org/ns#"
   xmlns:rdf="http://www.w3.org/1999/02/22-rdf-syntax-ns#"
   xmlns:svg="http://www.w3.org/2000/svg"
   xmlns="http://www.w3.org/2000/svg"
   viewBox="0 0 9225.696 9820.7258"
   height="9820.7256"
   width="9225.6963"
   xml:space="preserve"
   version="1.1"
   id="svg2"><metadata
     id="metadata8"><rdf:RDF><cc:Work
         rdf:about=""><dc:format>image/svg+xml</dc:format><dc:type
           rdf:resource="http://purl.org/dc/dcmitype/StillImage" /><dc:title></dc:title></cc:Work></rdf:RDF></metadata><defs
     id="defs6" /><g
     transform="matrix(1.25,0,0,-1.25,45370.135,-12433.431)"
     id="g10"><g
       transform="translate(-10546.85,-3070.602)"
       id="g5941"><path
         style="fill:#782121;fill-opacity:1"
         d="m -20264.787,11120.105 c -27.536,0.02 -55.719,2.435 -84.254,6.862 l 0.451,-0.215 c -154.204,23.829 -319.853,105.543 -453.867,177.623 -27.924,17.338 -45.218,29.209 -59.959,41.16 -36.961,30.129 -72.151,62.656 -105.52,97.365 88.614,28.099 188.586,63.295 305.51,107.53 6.188,-6.083 12.718,-11.539 23.074,-19.893 9.058,-7.204 19.365,-16.299 39.895,-34.594 27.357,-24.502 38.271,-33.435 103.281,-84.982 5.791,-4.599 14.697,-11.943 19.867,-16.383 9.897,-8.429 15.108,-12.197 31.772,-22.766 53.597,-34.2 153.442,-107.628 176.648,-130 20.394,-19.548 34.373,-46.06 39.094,-73.847 2.97,-17.582 -2.234,-33.177 -13.758,-41.426 -5.791,-4.11 -12.407,-6.018 -22.234,-6.434 z m -748.602,372.709 c -77.49,89.85 -143.866,192.234 -198.248,304.125 97.407,26.604 207.876,62.588 342.026,111.616 -1.079,-23.79 -3.037,-58.469 -3.735,-62.821 -0.482,-3.006 -0.151,-3.998 3.176,-9.607 2.073,-3.421 6.496,-10.294 9.848,-15.189 3.332,-4.971 7.779,-12.753 9.824,-17.329 3.651,-8.179 5.592,-13.49 15.801,-43.75 8.951,-26.398 13.625,-34.742 32.254,-57.236 l 21.718,-26.605 c 21.258,-26.425 32.27,-38.143 47.528,-50.666 -105.046,-56.54 -195.452,-99.892 -280.192,-132.538 z m -222.181,355.696 c -56.724,128.29 -98.272,267.904 -123.391,414.629 126.487,-1.539 262.04,9.145 445.641,38.832 4.506,-10.127 5.58,-15.525 5.494,-23.602 -0.185,-9.144 -2.484,-15.805 -9.342,-27.035 -5.516,-9.041 -5.418,-11.801 1.227,-28.318 4.87,-11.948 9.429,-27.042 10.711,-35.18 2.855,-17.488 -0.218,-36.656 -8.274,-51.563 l -2.758,-5.685 c -0.17,-1.058 4.554,-13.926 9.977,-26.865 7.126,-17.234 9.823,-26.614 10.963,-38.039 1.486,-14.676 -0.912,-27.711 -7.848,-42.707 -2.88,-6.231 -4.454,-10.79 -5.865,-17.069 l -1.934,-8.599 5.44,-4.043 c 1.452,-1.088 2.759,-2.151 3.967,-3.219 -126.156,-65.655 -231.545,-111.17 -334.008,-141.537 z m -40.325,472.242 c -30.02,0.03 -60.349,1.149 -91.408,3.305 -4.299,48.392 -5.312,67.007 -5.72,96.884 -1.562,120.823 -11.209,227.917 -30.756,340.352 -0.827,4.727 -1.441,8.227 -2.043,11.645 142.497,-35.996 283.307,-57.428 486.732,-64.788 -0.972,-5.02 -3.305,-10.137 -7.01,-15.269 -3.835,-5.323 -12.887,-15.864 -15.119,-17.686 -1.666,-1.327 -1.671,-1.364 -0.162,-2.757 4.663,-4.336 7.564,-10.876 7.539,-17.075 0,-2.532 0.531,-3.65 2.791,-5.898 3.095,-3.044 4.518,-5.5 6.401,-10.877 1.075,-3.071 1.078,-4.611 0.05,-11.024 -1.381,-8.614 -2.886,-11.303 -11.681,-20.832 -2.888,-3.097 -5.308,-6.405 -5.479,-7.468 -0.339,-2.115 2.539,-6.161 10.354,-14.444 4.936,-5.228 8.667,-11.654 12.191,-20.715 4.619,-11.908 4.025,-18.43 -3.555,-39.894 -2.8,-7.898 -5.206,-15.104 -5.347,-15.984 -0.17,-1.06 0.678,-2.474 2.492,-4.141 6.751,-6.271 12.357,-15.255 15.92,-26.09 2.964,-8.747 3.524,-13.835 2.348,-21.166 -1.293,-8.063 -3.667,-13.171 -10.043,-21.51 -5.21,-6.834 -9.384,-13.759 -9.76,-16.105 -0.113,-0.691 1.325,-2.224 3.424,-3.674 2.13,-1.496 5.466,-5.125 8.361,-9.123 4.019,-5.57 5.231,-8.094 7.563,-15.725 1.694,-5.45 2.684,-10.542 2.968,-15.363 -136.925,-37.519 -251.585,-54.681 -371.051,-54.578 z m 297.188,448.871 c -153.271,0.19 -284.211,25.283 -442.096,78.457 -20.687,94.227 -48.897,186.435 -82.769,271.141 -7.343,18.324 -15.695,37.824 -24.414,57.123 134.565,-36.638 275.992,-43.718 549.371,-12.967 1.066,-2.06 1.955,-4.218 2.65,-6.463 4.139,-12.92 1.537,-26.186 -8.043,-41.008 l -3.64,-5.92 c -0.04,-0.209 1.13,-0.989 2.587,-1.734 7.763,-3.998 13.981,-10.364 19.11,-19.494 7.434,-13.299 9.418,-21.888 7.98,-34.477 -1.68,-14.731 -5.28,-23.176 -12.664,-29.773 l -3.705,-3.317 4.031,-2.699 c 5.833,-3.94 11.078,-11.14 16.108,-22.096 9.137,-20 10.242,-29.238 5.211,-42.468 -2.424,-6.266 -5.629,-11.016 -10.848,-16.043 -3.965,-3.763 -7.983,-9.057 -8.334,-10.844 -0.08,-0.455 1.577,-1.319 3.686,-1.916 5.862,-1.691 13.124,-7.255 17.605,-13.574 9.731,-13.48 12.078,-34.723 5.438,-49.514 -2.204,-4.911 -7.8,-13.524 -10.799,-16.539 -0.994,-1.009 -2.254,-3.188 -2.799,-4.853 l -0.988,-3.006 2.89,-0.463 c 7.045,-1.21 15.787,-7.158 18.637,-12.766 2.203,-4.262 7.965,-22.48 8.51,-26.74 1.301,-10.039 -0.343,-17.613 -6.637,-27.371 -15.605,-0.463 -30.955,-0.695 -46.078,-0.676 z m -332.252,430.943 c -87.636,0.119 -166.466,20.5 -259.279,61.514 -0.684,1.249 -1.378,2.533 -2.053,3.748 l -7.674,13.824 -11.176,19.389 c -35.77,60.72 -74.737,115.135 -117.025,163.459 93.119,104.934 186.349,223.705 296.193,382.41 1.191,-0.934 2.098,-1.64 3.475,-2.722 68.74,-54.416 131.416,-118.577 194.26,-198.823 12.97,-16.667 49.397,-66.824 63.779,-87.988 23.418,-34.548 44.874,-68.022 47.516,-74.119 2.176,-5.085 2.849,-11.736 1.82,-18.149 -1.435,-8.943 0.141,-11.451 11.787,-18.808 12.66,-8.122 20.412,-18.614 23.402,-32.215 0.658,-2.942 0.28,-14.895 -0.535,-16.756 -0.896,-2.037 0.19,-5.934 2.405,-8.695 1.008,-1.242 4.095,-4.113 6.867,-6.364 6.005,-4.875 12.59,-13.788 14.892,-19.986 2.949,-7.802 3.414,-14.156 1.916,-25.834 -0.917,-7.146 -1.093,-10.989 -0.562,-12.166 0.429,-0.954 2.304,-2.595 4.168,-3.652 12.675,-7.224 20.593,-18.305 21.297,-30.035 0.4,-5.891 -1.457,-14.691 -4.768,-22.58 l -2.949,-7.686 5.545,-3.617 c -118.768,-36.079 -210.033,-54.262 -293.301,-54.149 z m -454.906,322.123 c -28.138,26.733 -57.579,51.149 -88.377,73.256 -52.01,37.295 -109.529,69.947 -170.377,96.93 49.948,116.69 99.532,250.107 153.914,417.561 116.715,-39.9 228.718,-100.046 322.932,-173.967 6.372,-5.008 14.655,-10.586 20.988,-14.233 22.408,-12.834 41.377,-24.695 61.916,-38.767 -94.828,-140.477 -189.596,-252.688 -300.996,-360.78 z m -326.865,197.514 c -23.94,8.617 -48.246,16.361 -72.799,23.168 -98.686,31.908 -200.254,66.331 -300.701,103.822 39.873,101.637 80.487,217.148 124.392,354.985 130.908,-13.775 258.916,-25.047 368.754,-60.873 4.438,-1.758 15.095,-5.022 23.785,-7.27 4.543,-1.174 9.084,-2.383 13.621,-3.621 -45.472,-156.958 -95.487,-286.883 -157.052,-410.211 z m -437.028,151.192 c -109.171,42.465 -215.988,88.747 -315.193,139.601 34.129,80.728 68.19,169.615 103.826,272.164 103.481,-41.209 216.429,-59.903 329.225,-73.222 -35.569,-127.285 -73.693,-236.753 -117.858,-338.543 z m -379.053,173.585 c -110.633,61.182 -209.561,128.685 -288.623,203.676 33.513,91.012 68.033,193.224 104.989,311.34 16.261,-20.857 24.102,-29.296 39.98,-42.664 28.283,-23.972 38.434,-34.023 50.031,-49.572 12.289,-16.483 24.361,-28.682 50.129,-50.592 l 24.625,-20.98 c 39.356,-34.998 81.912,-63.148 126.782,-86.036 -32.389,-95.906 -67.666,-182.271 -107.913,-265.172 z m -339.15,255.749 c -25.325,28.515 -47.786,58.051 -66.986,88.667 -24.844,41.782 -25.194,42.421 -36.84,58.473 -11.305,15.76 -16.873,26.993 -35.955,72.846 l -19.899,46.822 c -15.376,35.514 -20.693,49.122 -31.265,77.102 -9.314,24.953 -12.294,32.574 -22.582,56.685 -8.747,20.426 -9.534,23.974 -15.241,63.348 -2.707,18.781 -5.23,39.135 -5.927,45.67 l 0.308,0.592 c -0.541,6.402 -1.54,24.759 -2.127,40.72 -1.076,26.302 -1.363,29.656 -2.998,34.92 -1.191,4.063 -2.545,12.739 -4.363,27.994 -2.945,24.759 -2.893,32.345 0.09,41.62 3.922,11.816 15.627,20.839 29.451,22.794 14.278,1.958 40.958,-5.805 60.824,-17.767 8.257,-4.944 18.803,-13.352 26.202,-20.819 18.146,-18.25 88.363,-117.161 123.076,-173.093 17.845,-28.993 21.266,-33.865 28.211,-42.153 2.862,-3.376 16.511,-21.183 30.506,-39.519 21.006,-27.671 34.417,-45.138 44.607,-57.846 -30.877,-123.034 -63.074,-229.617 -99.088,-327.056 z"
         transform="matrix(0.8,0,0,-0.8,-6954.0466,1462.7694)"
         id="path5456-0-5" /><path
         style="fill:#436f14;fill-opacity:1"
         d="m -23853.46,-9534.921 -2.749,-21.9767 c -6.91,-53.9998 -5.507,-69.4524 11.445,-136.0795 18.138,-71.1664 32.929,-102.8003 72.876,-155.6948 108.031,-143.2435 290.428,-225.323 470.667,-211.679 66.399,5.007 147.461,33.72 208.721,65.8058 -259.969,25.7924 -437.016,74.5681 -465.637,241.8732 133.298,-116.9765 327.509,-150.6587 487.817,-128.0121 -14.035,29.0092 -41.162,66.7352 -88.344,114.6568 -111.798,113.4747 -242.21,182.4749 -397.022,210.2536 -38.436,6.8442 -194.317,18.9627 -259.744,20.1557 l -38.004,0.6881 z"
         id="path5419-8-0" /><g
         id="g5493-3-3"
         style="fill:#44aa00;fill-opacity:1"
         transform="translate(-6892.7884,-5593.1047)"><path
           d="m -17769.718,-2148.5536 q 275.727,0 367.63,-90.324 107.75,-179.0656 107.75,-450.0313 l 0,-23.7975 q 0,-247.1996 -112.512,-518.1715 -102.999,-169.5529 -396.16,-169.5529 l -74.518,0 q -377.14,0 -480.142,255.1237 -61.833,210.7558 -61.833,423.0942 l 0,4.7537 q 0,354.9542 155.294,507.0827 98.238,60.2159 494.403,61.7858 z m -413.59,-592.6471 q 0,-378.7265 167.973,-442.1072 28.493,-19.0254 164.804,-28.5068 188.574,0 245.617,109.337 74.518,186.9835 74.518,385.062 -20.59,331.1878 -112.504,350.2008 -77.638,23.7975 -183.815,23.7975 -261.466,0 -291.568,-71.311 -64.963,-126.7676 -64.963,-326.4347 z"
           style="font-style:normal;font-variant:normal;font-weight:normal;font-stretch:normal;font-size:medium;line-height:125%;font-family:'Guayaba Sans - personal use';-inkscape-font-specification:'Guayaba Sans - personal use';letter-spacing:0px;word-spacing:0px;fill:#44aa00;fill-opacity:1;stroke:none;stroke-width:1px;stroke-linecap:butt;stroke-linejoin:miter;stroke-opacity:1"
           id="path5423-1-7" /><path
           d="m -15410.213,-1803.1062 c 0,-134.1641 -78.718,-219.2074 -236.107,-255.1235 -43.305,0 -91.9,-30.1394 -145.784,-90.3239 88.737,0 171.135,-21.6627 247.197,-64.9693 51.792,-58.0811 86.622,-139.4448 104.587,-244.0349 15.892,-78.1802 23.796,-163.2173 23.796,-255.1234 0,-166.9159 -38.037,-339.6395 -114.093,-518.1716 -68.666,-113.0352 -222.373,-169.5529 -461.123,-169.5529 -64.467,0 -134.694,6.342 -210.756,19.0255 -82.4,-46.465 -123.603,-96.6595 -123.603,-150.5399 0,-58.0811 64.467,-104.0563 193.325,-137.8627 l 160.044,-4.7536 c 230.302,0 372.916,-78.1741 427.85,-234.5222 9.469,-32.7766 14.241,-75.003 14.241,-126.7675 0,-163.7449 -97.191,-273.6092 -291.568,-329.5993 -216.494,-51.9904 -776.017,-14.7558 -816.962,173.7912 200.018,-243.8025 938.704,-94.7634 864.519,160.5612 0,90.8515 -78.718,144.1981 -236.107,160.0466 -273.611,0 -436.299,54.9415 -488.063,164.7995 -28.568,45.3974 -42.819,106.6997 -42.819,183.819 0,86.6257 56.487,161.6349 169.555,225.0156 -113.04,96.1319 -169.555,287.3477 -169.555,573.6341 0,246.1445 51.791,419.3959 155.293,519.7599 76.084,36.9836 189.101,55.4441 339.109,55.4441 l 95.085,0 c 24.293,116.206 66.615,207.5848 126.773,274.1365 27.412,29.5743 114.068,52.8066 259.877,69.7224 l 155.294,1.5842 z m -896.898,-942.8509 c 0,-220.7898 43.802,-360.7686 131.524,-419.9232 52.774,-30.6418 120.417,-45.9627 202.834,-45.9627 126.773,0 210.229,37.4859 250.368,112.5079 46.522,132.0545 69.735,255.651 69.735,370.8024 0,156.3478 -27.996,272.0268 -83.987,347.0299 -46.522,25.3674 -122.021,38.0508 -226.596,38.0508 -167.973,-6.3417 -257.234,-26.9371 -267.798,-61.7856 -50.722,-61.2834 -76.083,-174.84 -76.083,-340.6943 z"
           style="font-style:normal;font-variant:normal;font-weight:normal;font-stretch:normal;font-size:medium;line-height:125%;font-family:'Guayaba Sans - personal use';-inkscape-font-specification:'Guayaba Sans - personal use';letter-spacing:0px;word-spacing:0px;fill:#44aa00;fill-opacity:1;stroke:none;stroke-width:1px;stroke-linecap:butt;stroke-linejoin:miter;stroke-opacity:1"
           id="path5425-8-7" /><path
           d="m -14784.287,-2124.7843 q 321.679,0 404.08,-141.0337 39.602,-31.7091 39.602,-326.4344 6.339,-242.4463 6.339,-686.142 l 0,-103.0015 -6.339,-6.3417 q -106.173,0 -218.676,61.7856 -28.492,23.7977 -28.492,64.9692 l 0,58.6462 -3.17,36.4812 q -166.385,-232.9398 -340.689,-232.9398 -280.478,0 -359.71,283.6495 -20.589,93.4949 -22.144,169.5528 6.338,519.7537 25.361,519.7537 52.288,160.0464 163.214,228.1867 93.488,72.8933 305.83,72.8933 l 34.829,0 z m -289.988,-711.4962 q 0,-329.5992 134.694,-329.5992 83.987,0 236.106,126.7675 42.82,42.7602 101.412,126.7673 l -3.169,90.324 -4.754,410.417 q 0,58.6462 -126.772,87.153 l -25.361,0 q -242.447,0 -286.818,-155.2933 -25.361,-80.8112 -25.361,-356.5425 z"
           style="font-style:normal;font-variant:normal;font-weight:normal;font-stretch:normal;font-size:medium;line-height:125%;font-family:'Guayaba Sans - personal use';-inkscape-font-specification:'Guayaba Sans - personal use';letter-spacing:0px;word-spacing:0px;fill:#44aa00;fill-opacity:1;stroke:none;stroke-width:1px;stroke-linecap:butt;stroke-linejoin:miter;stroke-opacity:1"
           id="path5427-6-7" /><path
           d="m -13589.481,-2129.5382 61.832,0 q 234.526,0 318.509,-206.0027 22.176,-68.1403 22.176,-137.8626 l 0,-665.5416 q 0,-172.7238 -22.176,-172.7238 -91.911,-72.8934 -236.109,-72.8934 l -6.338,7.9117 0,31.7091 -3.17,814.4966 q 0,142.616 -90.324,166.3821 l -19.023,0 q -85.574,-4.7539 -231.356,-126.7676 -76.084,-82.3998 -98.238,-129.9385 -12.675,-681.3879 -25.361,-681.3879 -87.15,-82.3998 -245.617,-82.3998 l -3.169,0 0,350.2008 3.169,264.6299 -3.169,267.801 0,358.1252 7.923,6.3417 60.191,0 q 137.864,0 185.404,-96.6595 l 6.338,-123.6028 4.754,0 q 156.875,228.1864 313.758,228.1864 z"
           style="font-style:normal;font-variant:normal;font-weight:normal;font-stretch:normal;font-size:medium;line-height:125%;font-family:'Guayaba Sans - personal use';-inkscape-font-specification:'Guayaba Sans - personal use';letter-spacing:0px;word-spacing:0px;fill:#44aa00;fill-opacity:1;stroke:none;stroke-width:1px;stroke-linecap:butt;stroke-linejoin:miter;stroke-opacity:1"
           id="path5429-1-8" /><path
           d="m -12961.969,-2134.2921 c 96.133,0 161.632,-30.1395 196.494,-90.324 5.282,0 12.675,-150.0126 22.176,-450.0313 l -15.85,-595.8178 c 0,-61.2834 -85.573,-101.4191 -256.709,-120.4321 l -4.754,3.1691 0,4.7537 4.754,613.2486 -4.754,632.2647 4.754,3.1696 53.886,0 z"
           style="font-style:normal;font-variant:normal;font-weight:normal;font-stretch:normal;font-size:medium;line-height:125%;font-family:'Guayaba Sans - personal use';-inkscape-font-specification:'Guayaba Sans - personal use';letter-spacing:0px;word-spacing:0px;fill:#44aa00;fill-opacity:1;stroke:none;stroke-width:1px;stroke-linecap:butt;stroke-linejoin:miter;stroke-opacity:1"
           id="path5431-1-0" /><path
           d="m -12519.859,-1546.3971 q 139.446,0 191.738,-107.7546 19.024,-33.2788 19.024,-179.0593 l 0,-694.0654 141.031,-12.6837 q 133.109,245.6173 198.079,291.5736 87.15,99.8304 158.462,99.8304 l 269.386,0 -63.386,-58.6462 q -45.95,-33.2791 -172.724,-172.7238 l -179.062,-221.845 q 172.724,-107.7545 288.401,-497.5697 52.288,-182.2303 122.017,-234.5221 l 25.35,-50.7345 -244.033,0 q -91.911,0 -161.631,251.9527 -44.374,212.3382 -145.785,280.4782 -141.032,87.1532 -236.11,99.8304 l 0,-454.7844 q 0,-120.432 -145.786,-167.9705 -49.124,-14.2536 -98.249,-14.2536 l -19.023,0 q -9.51,0 -9.51,14.2536 l 0,1424.5762 -14.262,389.8154 q 6.338,9.4813 76.062,14.2534 z"
           style="font-style:normal;font-variant:normal;font-weight:normal;font-stretch:normal;font-size:medium;line-height:125%;font-family:'Guayaba Sans - personal use';-inkscape-font-specification:'Guayaba Sans - personal use';letter-spacing:0px;word-spacing:0px;fill:#44aa00;fill-opacity:1;stroke:none;stroke-width:1px;stroke-linecap:butt;stroke-linejoin:miter;stroke-opacity:1"
           id="path5433-5-3" /></g><g
         transform="scale(1,-1)"
         style="font-style:normal;font-weight:normal;font-size:1133.04602051px;line-height:125%;font-family:sans-serif;letter-spacing:0.02684152px;word-spacing:0px;fill:#436f14;fill-opacity:1;stroke:none;stroke-width:1px;stroke-linecap:butt;stroke-linejoin:miter;stroke-opacity:1"
         id="text5435-1-8"><path
           d="m -21821.875,9157.0908 q 0,12.7246 -4.426,24.896 -4.426,12.1714 -13.278,21.5766 -9.405,9.9584 -22.683,15.4908 -13.831,6.0857 -32.088,6.0857 -60.304,0 -112.309,22.6831 -52.558,22.683 -91.839,61.9634 -28.215,28.2155 -47.579,62.5167 -19.917,34.3012 -29.322,73.5816 l 279.942,0 q 18.257,0 32.089,5.5325 13.831,6.0857 23.236,15.4908 8.852,9.9584 13.831,22.1298 4.426,12.1714 4.426,24.8961 0,12.7246 -4.426,24.896 -4.979,12.7246 -13.831,22.1298 -9.405,9.9584 -23.236,16.0441 -13.832,6.0857 -32.089,6.0857 l -289.347,0 0,288.794 q 0,18.2571 -5.532,31.5349 -6.086,13.8312 -15.491,22.6831 -9.405,9.4052 -21.577,13.8311 -12.171,4.426 -24.896,4.426 -12.724,0 -24.896,-4.426 -12.724,-4.4259 -22.13,-13.8311 -9.405,-8.8519 -14.937,-22.6831 -6.086,-13.2778 -6.086,-31.5349 l 0,-357.9496 q 0,-87.966 33.748,-165.4203 33.195,-76.9011 91.839,-134.9918 28.768,-28.7688 63.07,-52.0051 33.748,-23.2363 71.922,-39.8336 38.173,-16.0441 80.22,-24.8961 41.493,-8.8519 85.2,-8.8519 18.257,0 32.088,5.5325 13.278,6.0857 22.683,15.4908 8.852,9.9584 13.278,22.1298 l 4.426,26.0026 z"
           style="font-style:normal;font-variant:normal;font-weight:bold;font-stretch:normal;font-family:ChicaGogoNFW01-Bold;-inkscape-font-specification:'ChicaGogoNFW01-Bold Bold';letter-spacing:5.36402512px;fill:#436f14;fill-opacity:1"
           id="path5876" /><path
           d="m -21300.333,9593.0479 0,-218.5318 q 0,-30.9817 -11.618,-58.0907 -11.619,-27.1091 -32.089,-47.5791 -20.47,-20.4701 -47.579,-32.0882 -27.109,-11.6182 -58.091,-11.6182 -30.981,0 -58.09,11.6182 -27.109,12.1714 -47.579,32.6414 -20.47,20.4701 -32.089,47.5791 -12.171,27.109 -12.171,57.5375 l 0,218.5318 299.306,0 z m 137.204,278.8356 q 0,18.2571 -5.532,31.5349 -6.086,13.8312 -15.491,22.6831 -9.958,9.4052 -22.13,13.8311 -12.171,4.426 -24.896,4.426 -13.278,0 -25.449,-4.426 -12.725,-4.4259 -22.13,-13.8311 -9.958,-8.8519 -15.491,-22.6831 -6.085,-13.2778 -6.085,-31.5349 l 0,-142.7373 -299.306,0 0,142.7373 q 0,18.2571 -5.532,31.5349 -6.086,13.8312 -15.491,22.6831 -9.405,9.4052 -21.577,13.8311 -12.171,4.426 -24.896,4.426 -12.724,0 -24.896,-4.426 -12.725,-4.4259 -22.13,-13.8311 -9.405,-8.8519 -14.937,-22.6831 -6.086,-13.2778 -6.086,-31.5349 l 0,-497.3674 q 0,-59.1972 22.683,-111.2023 22.683,-52.005 61.41,-91.2854 38.727,-38.7272 90.732,-61.4102 52.005,-22.6831 110.649,-22.6831 58.644,0 111.203,22.6831 52.005,22.683 91.285,61.4102 38.727,39.2804 61.41,91.2854 22.683,52.0051 22.683,111.2023 l 0,497.3674 z"
           style="font-style:normal;font-variant:normal;font-weight:bold;font-stretch:normal;font-family:ChicaGogoNFW01-Bold;-inkscape-font-specification:'ChicaGogoNFW01-Bold Bold';letter-spacing:5.36402512px;fill:#436f14;fill-opacity:1"
           id="path5878" /><path
           d="m -20719.041,9684.8866 q 0,-24.896 -9.405,-46.4726 -9.405,-21.5765 -25.45,-37.6206 -16.044,-16.0442 -37.62,-25.4493 -21.577,-9.4052 -46.473,-9.4052 l -101.244,0 0,237.8954 101.244,0 q 24.896,0 46.473,-9.4052 21.576,-9.4051 37.62,-26.0025 16.045,-16.0441 25.45,-37.6206 l 9.405,-45.9194 z m -19.364,-357.9496 q 0,-20.4701 -7.745,-39.2804 -8.299,-18.2571 -22.13,-32.6415 -14.384,-13.8311 -32.641,-22.1298 -18.811,-7.7454 -39.281,-7.7454 l -99.031,0 0,203.5942 99.031,0 q 20.47,0 39.281,-8.2987 18.257,-7.7454 32.641,-22.1298 13.831,-13.8311 22.13,-32.0882 l 7.745,-39.2804 z m 156.569,357.9496 q 0,52.5583 -19.917,99.0309 -20.47,46.4726 -55.325,80.7738 -34.854,34.8544 -81.327,54.7712 -47.026,20.4701 -99.584,20.4701 l -168.74,0 q -12.724,0 -24.896,-6.0857 -12.724,-5.5324 -22.129,-14.9376 -9.406,-9.4052 -14.938,-22.1298 -6.086,-12.1714 -6.086,-24.896 l 0,-714.7927 q 0,-13.2779 6.086,-26.0026 5.532,-12.1714 14.938,-22.1298 9.405,-9.4051 22.129,-15.4908 12.172,-5.5325 24.896,-5.5325 l 166.527,0 q 48.686,0 92.392,18.8104 43.153,18.8103 75.795,50.8985 32.088,32.6415 50.898,76.3478 18.811,43.7064 18.811,92.9452 0,48.6856 -17.704,90.7322 -17.704,42.0466 -49.239,74.6881 41.493,36.5142 64.73,86.8595 l 22.683,105.6698 z"
           style="font-style:normal;font-variant:normal;font-weight:bold;font-stretch:normal;font-family:ChicaGogoNFW01-Bold;-inkscape-font-specification:'ChicaGogoNFW01-Bold Bold';letter-spacing:5.36402512px;fill:#436f14;fill-opacity:1"
           id="path5880" /><path
           d="m -20133.876,9342.9811 q 0,-24.3428 -9.405,-45.9193 -9.406,-21.0233 -25.45,-37.0674 -16.044,-16.0442 -37.067,-25.4493 -21.577,-9.4052 -45.919,-9.4052 l -108.99,0 0,234.5759 108.99,0 q 23.236,0 44.812,-9.4051 21.024,-8.8519 37.621,-24.8961 16.044,-15.4908 26.003,-37.0674 l 9.405,-45.3661 z m 168.74,534.4348 q 0,14.3844 -5.533,26.0025 -6.086,12.1714 -15.491,21.0234 -9.405,8.8519 -21.576,13.8311 -12.725,4.9792 -26.556,4.9792 -15.491,0 -29.875,-7.1922 -14.938,-7.1922 -27.663,-24.3428 l -225.724,-315.3497 -43.153,0 0,275.5161 q 0,18.2571 -5.532,31.5349 -6.086,13.8312 -15.491,22.6831 -9.405,9.4052 -21.577,13.8311 -12.171,4.426 -24.896,4.426 -12.724,0 -24.896,-4.426 -12.724,-4.4259 -22.129,-13.8311 -9.406,-8.8519 -14.938,-22.6831 -6.086,-13.2778 -6.086,-31.5349 l 0,-714.7927 q 0,-13.2779 6.086,-26.0026 5.532,-12.1714 14.938,-22.1298 9.405,-9.4051 22.129,-15.4908 12.172,-5.5325 24.896,-5.5325 l 176.486,0 q 52.005,0 98.477,19.9168 46.473,20.4701 80.774,54.7713 34.301,34.8545 54.771,81.327 19.917,46.4726 19.917,99.0309 0,39.2804 -11.618,75.2414 -12.171,35.9609 -33.195,66.3894 -21.576,30.9817 -51.452,55.3245 -30.428,24.3428 -66.942,39.8336 l 180.358,252.2798 q 8.298,12.1714 12.171,23.2363 l 3.32,22.1298 z"
           style="font-style:normal;font-variant:normal;font-weight:bold;font-stretch:normal;font-family:ChicaGogoNFW01-Bold;-inkscape-font-specification:'ChicaGogoNFW01-Bold Bold';letter-spacing:5.36402512px;fill:#436f14;fill-opacity:1"
           id="path5882" /><path
           d="m -19719.664,9871.8835 q 0,18.2571 -5.532,31.5349 -6.086,13.8312 -15.491,22.6831 -9.406,9.4052 -21.577,13.8311 -12.171,4.426 -24.896,4.426 -12.725,0 -24.896,-4.426 -12.725,-4.4259 -22.13,-13.8311 -9.405,-8.8519 -14.937,-22.6831 -6.086,-13.2778 -6.086,-31.5349 l 0,-481.3233 q 0,-18.2571 6.086,-32.0882 5.532,-13.2779 14.937,-22.6831 9.405,-8.8519 22.13,-13.2778 12.171,-4.426 24.896,-4.426 12.725,0 24.896,4.426 12.171,4.4259 21.577,13.2778 9.405,9.4052 15.491,22.6831 5.532,13.8311 5.532,32.0882 l 0,481.3233 z m 22.683,-678.8318 q 0,18.8103 -7.192,34.8544 -7.192,16.5974 -19.364,28.7688 -12.171,12.7246 -28.215,19.9168 -16.598,7.1922 -35.408,7.1922 -18.81,0 -35.408,-7.1922 -16.597,-7.1922 -28.768,-19.9168 -12.172,-12.1714 -19.364,-28.7688 -7.192,-16.0441 -7.192,-34.8544 0,-18.8103 7.192,-35.4077 7.192,-16.0441 19.364,-28.2155 12.171,-12.1714 28.768,-19.3636 16.598,-7.1922 35.408,-7.1922 18.81,0 35.408,7.1922 16.044,7.1922 28.215,19.3636 12.172,12.1714 19.364,28.2155 l 7.192,35.4077 z"
           style="font-style:normal;font-variant:normal;font-weight:bold;font-stretch:normal;font-family:ChicaGogoNFW01-Bold;-inkscape-font-specification:'ChicaGogoNFW01-Bold Bold';letter-spacing:5.36402512px;fill:#436f14;fill-opacity:1"
           id="path5884" /><path
           d="m -19038.234,9876.3094 q 0,13.8312 -4.98,26.0025 -5.532,12.1714 -14.384,21.0234 -9.405,9.4051 -21.577,14.3843 -12.171,5.5325 -26.002,5.5325 -12.725,0 -26.003,-5.5325 -13.831,-4.9792 -26.002,-17.1506 l -316.456,-314.7964 0,266.1109 q 0,18.2571 -5.533,31.5349 -6.085,13.8312 -15.491,22.6831 -9.405,9.4052 -21.576,13.8311 -12.172,4.426 -24.896,4.426 -12.725,0 -24.896,-4.426 -12.725,-4.4259 -22.13,-13.8311 -9.405,-8.8519 -14.938,-22.6831 -6.085,-13.2778 -6.085,-31.5349 l 0,-714.7927 q 0,-18.2571 6.085,-32.0883 5.533,-13.8311 14.938,-23.2363 9.405,-8.8519 22.13,-13.8311 12.171,-4.4259 24.896,-4.4259 12.724,0 24.896,4.4259 12.171,4.9792 21.576,13.8311 9.406,9.4052 15.491,23.2363 5.533,13.8312 5.533,32.0883 l 0,222.9577 273.303,-271.6433 q 12.724,-12.7246 26.002,-18.2571 13.278,-5.5324 26.003,-5.5324 13.831,0 26.002,5.5324 12.172,5.5325 21.577,14.9376 9.405,9.4052 14.937,21.5766 5.533,12.1714 5.533,26.0025 0,12.7246 -5.533,26.0025 -5.532,13.2779 -18.257,26.0025 l -288.794,287.6875 330.841,330.8406 q 12.725,12.7246 18.257,26.0025 l 5.533,27.109 z"
           style="font-style:normal;font-variant:normal;font-weight:bold;font-stretch:normal;font-family:ChicaGogoNFW01-Bold;-inkscape-font-specification:'ChicaGogoNFW01-Bold Bold';letter-spacing:5.36402512px;fill:#436f14;fill-opacity:1"
           id="path5886" /><path
           d="m -18516.14,9593.0479 0,-218.5318 q 0,-30.9817 -11.618,-58.0907 -11.618,-27.1091 -32.088,-47.5791 -20.47,-20.4701 -47.579,-32.0882 -27.109,-11.6182 -58.091,-11.6182 -30.982,0 -58.091,11.6182 -27.109,12.1714 -47.579,32.6414 -20.47,20.4701 -32.088,47.5791 -12.171,27.109 -12.171,57.5375 l 0,218.5318 299.305,0 z m 137.205,278.8356 q 0,18.2571 -5.532,31.5349 -6.086,13.8312 -15.491,22.6831 -9.959,9.4052 -22.13,13.8311 -12.171,4.426 -24.896,4.426 -13.278,0 -25.449,-4.426 -12.725,-4.4259 -22.13,-13.8311 -9.958,-8.8519 -15.491,-22.6831 -6.086,-13.2778 -6.086,-31.5349 l 0,-142.7373 -299.305,0 0,142.7373 q 0,18.2571 -5.533,31.5349 -6.085,13.8312 -15.491,22.6831 -9.405,9.4052 -21.576,13.8311 -12.171,4.426 -24.896,4.426 -12.725,0 -24.896,-4.426 -12.725,-4.4259 -22.13,-13.8311 -9.405,-8.8519 -14.938,-22.6831 -6.085,-13.2778 -6.085,-31.5349 l 0,-497.3674 q 0,-59.1972 22.683,-111.2023 22.683,-52.005 61.41,-91.2854 38.727,-38.7272 90.732,-61.4102 52.005,-22.6831 110.649,-22.6831 58.644,0 111.202,22.6831 52.006,22.683 91.286,61.4102 38.727,39.2804 61.41,91.2854 22.683,52.0051 22.683,111.2023 l 0,497.3674 z"
           style="font-style:normal;font-variant:normal;font-weight:bold;font-stretch:normal;font-family:ChicaGogoNFW01-Bold;-inkscape-font-specification:'ChicaGogoNFW01-Bold Bold';letter-spacing:5.36402512px;fill:#436f14;fill-opacity:1"
           id="path5888" /></g><path
         style="fill:#436f14;fill-opacity:1"
         d="m -19801.929,-7689.2648 c 2.212,8.0373 -10.195,114.4606 -19.757,169.4777 -18.894,108.4013 -47.613,194.9577 -89.612,270.0424 -38.328,68.3287 -23.213,54.7534 20.73,-18.6487 54.414,-90.9582 91.447,-196.8414 120.317,-343.6644 l 16.195,-82.5129 16.195,25.8699 c 39.407,63.0353 69.098,151.0358 76.115,225.1789 17.059,179.9446 -61.54,363.8701 -202.705,474.5945 -52.148,40.8768 -83.458,56.3231 -154.284,75.7693 -66.291,18.2092 -81.73,19.8419 -135.81,14.0023 l -22.025,-2.3767 -0.04,-38.0508 c -0.06,-65.4339 9.092,-221.512 15.223,-260.0841 24.833,-155.3184 91.34,-287.015 202.674,-400.9418 52.903,-54.188 104.835,-95.5668 131.902,-105.0795 16.95,-5.9828 23.968,-6.9699 24.94,-3.6124 z"
         id="path5439-4-7" /><g
         transform="scale(1,-1)"
         style="font-style:normal;font-weight:normal;font-size:430.49237061px;line-height:125%;font-family:sans-serif;letter-spacing:0px;word-spacing:0px;fill:#000000;fill-opacity:1;stroke:none;stroke-width:1px;stroke-linecap:butt;stroke-linejoin:miter;stroke-opacity:1"
         id="text5688"><path
           d="m -25173.247,10275.701 q 0,-35.314 16.396,-55.913 16.396,-20.81 43.932,-20.81 27.957,0 43.932,20.6 15.976,20.389 15.976,56.544 0,34.683 -16.186,54.862 -16.185,19.969 -43.722,19.969 -27.746,0 -44.142,-20.179 -16.186,-20.179 -16.186,-55.073 z m 91.018,-2.312 q 0,-46.454 -29.849,-46.454 -32.581,0 -32.581,49.187 0,22.701 8.198,35.103 8.198,12.192 23.122,12.192 16.185,0 23.542,-11.981 7.568,-11.982 7.568,-38.047 z m 157.44,-74.411 27.537,0 -187.71,295.333 -27.957,0 188.13,-295.333 z m -33.632,224.285 q 0,-38.888 15.555,-59.698 15.765,-20.809 44.773,-20.809 26.275,0 42.25,20.179 15.976,20.179 15.976,53.811 0,37.206 -15.555,57.385 -15.555,20.18 -43.932,20.18 -26.696,0 -42.881,-19.129 -16.186,-19.338 -16.186,-51.919 z m 89.966,-3.784 q 0,-49.187 -30.058,-49.187 -31.951,0 -31.951,45.193 0,27.326 7.147,39.518 7.357,12.192 23.963,12.192 30.899,0 30.899,-47.716 z"
           style="font-style:normal;font-variant:normal;font-weight:normal;font-stretch:normal;font-family:'Tw Cen MT';-inkscape-font-specification:'Tw Cen MT';letter-spacing:59.87281036px"
           id="path5891" /><path
           d="m -24698.646,10208.437 69.576,0 0,266.956 -36.154,0 0,-231.642 -45.614,0 12.192,-35.314 z"
           style="font-style:normal;font-variant:normal;font-weight:normal;font-stretch:normal;font-family:'Tw Cen MT';-inkscape-font-specification:'Tw Cen MT';letter-spacing:59.87281036px"
           id="path5893" /><path
           d="m -24348.906,10198.557 q 44.142,0 71.679,39.728 27.746,39.518 27.746,102.789 0,65.583 -29.848,104.47 -29.639,38.887 -71.259,38.887 -43.301,0 -72.099,-39.728 -28.587,-39.938 -28.587,-101.527 0,-68.316 29.428,-106.362 29.639,-38.257 70.838,-38.257 l 2.102,0 z m 61.169,142.097 q 0,-45.404 -17.868,-74.622 -17.867,-29.218 -44.983,-29.218 -27.956,0 -45.613,29.008 -17.657,28.797 -17.657,76.093 0,46.875 17.867,75.462 17.867,28.377 46.244,28.377 27.326,0 44.563,-29.008 17.447,-29.218 17.447,-76.092 z"
           style="font-style:normal;font-variant:normal;font-weight:normal;font-stretch:normal;font-family:'Tw Cen MT';-inkscape-font-specification:'Tw Cen MT';letter-spacing:59.87281036px"
           id="path5895" /><path
           d="m -24051.085,10198.557 q 44.142,0 71.678,39.728 27.747,39.518 27.747,102.789 0,65.583 -29.849,104.47 -29.638,38.887 -71.258,38.887 -43.301,0 -72.099,-39.728 -28.587,-39.938 -28.587,-101.527 0,-68.316 29.428,-106.362 29.638,-38.257 70.838,-38.257 l 2.102,0 z m 61.168,142.097 q 0,-45.404 -17.867,-74.622 -17.867,-29.218 -44.983,-29.218 -27.957,0 -45.614,29.008 -17.656,28.797 -17.656,76.093 0,46.875 17.867,75.462 17.867,28.377 46.244,28.377 27.326,0 44.563,-29.008 17.446,-29.218 17.446,-76.092 z"
           style="font-style:normal;font-variant:normal;font-weight:normal;font-stretch:normal;font-family:'Tw Cen MT';-inkscape-font-specification:'Tw Cen MT';letter-spacing:59.87281036px"
           id="path5897" /><path
           d="m -23680.149,10387.949 q 0,-35.524 27.957,-63.061 28.167,-27.746 64.532,-27.746 37.415,0 65.372,27.326 27.957,27.116 27.957,63.481 0,36.575 -27.536,64.532 -27.326,27.746 -63.271,27.746 -38.467,0 -66.844,-27.536 -28.167,-27.537 -28.167,-64.742 z m 150.504,0 q 0,-22.071 -16.816,-38.257 -16.816,-16.396 -39.938,-16.396 -23.753,0 -40.989,16.606 -17.027,16.396 -17.027,39.308 0,21.861 17.237,38.257 17.447,16.395 40.779,16.395 22.702,0 39.728,-16.816 17.026,-16.816 17.026,-39.097 z"
           style="font-style:normal;font-variant:normal;font-weight:normal;font-stretch:normal;font-family:'Tw Cen MT';-inkscape-font-specification:'Tw Cen MT';letter-spacing:59.87281036px"
           id="path5899" /><path
           d="m -23354.792,10301.976 0,35.735 0,0 q 12.192,-21.441 23.753,-30.9 11.771,-9.669 30.479,-9.669 5.255,0 15.135,2.522 l -11.141,36.575 q -10.51,-2.102 -13.873,-2.102 -18.498,0 -31.11,13.033 -12.402,12.822 -12.402,32.161 l 0,96.062 -36.575,0 0,-173.417 35.734,0 z"
           style="font-style:normal;font-variant:normal;font-weight:normal;font-stretch:normal;font-family:'Tw Cen MT';-inkscape-font-specification:'Tw Cen MT';letter-spacing:59.87281036px"
           id="path5901" /><path
           d="m -23047.302,10301.976 35.734,0 0,166.48 q 0,36.785 -25.434,62.43 -25.224,25.855 -61.169,25.855 -27.326,0 -50.238,-14.925 -22.912,-14.714 -33.632,-44.983 l 37.836,0 q 17.027,28.167 47.296,28.167 20.599,0 35.103,-14.924 14.504,-14.714 14.504,-35.524 l 0,-32.792 q -26.485,38.467 -66.844,38.467 -33.212,0 -58.015,-27.326 -24.594,-27.536 -24.594,-64.952 0,-37.416 23.963,-64.112 24.173,-26.695 57.385,-26.695 42.881,0 68.105,41.409 l 0,-36.575 z m 5.045,86.393 q 0,-24.383 -17.026,-40.779 -16.816,-16.396 -41.83,-16.396 -22.912,0 -40.359,17.027 -17.447,17.026 -17.447,39.307 0,24.174 17.237,41.62 17.236,17.447 40.989,17.447 24.173,0 41.2,-17.026 17.236,-17.027 17.236,-41.2 z"
           style="font-style:normal;font-variant:normal;font-weight:normal;font-stretch:normal;font-family:'Tw Cen MT';-inkscape-font-specification:'Tw Cen MT';letter-spacing:59.87281036px"
           id="path5903" /><path
           d="m -22756.208,10301.976 36.575,0 0,173.417 -36.575,0 0,-34.473 q -26.695,39.307 -66.213,39.307 -34.263,0 -58.646,-26.906 -24.173,-26.905 -24.173,-65.372 0,-36.365 24.383,-63.481 24.594,-27.326 57.595,-27.326 20.39,0 38.677,11.141 18.288,11.14 28.377,29.007 l 0,-35.314 z m 4.835,87.234 q 0,-23.753 -17.026,-40.569 -17.027,-17.026 -40.779,-17.026 -23.123,0 -40.359,16.816 -17.237,16.816 -17.237,39.518 0,24.593 16.817,41.83 16.816,17.236 40.779,17.236 23.752,0 40.779,-17.026 17.026,-17.236 17.026,-40.779 z"
           style="font-style:normal;font-variant:normal;font-weight:normal;font-stretch:normal;font-family:'Tw Cen MT';-inkscape-font-specification:'Tw Cen MT';letter-spacing:59.87281036px"
           id="path5905" /><path
           d="m -22611.203,10475.393 0,-173.417 35.734,0 0,28.798 q 15.765,-17.447 28.587,-25.434 12.823,-8.198 28.588,-8.198 23.542,0 40.148,15.555 16.816,15.555 16.816,37.416 l 0,125.28 -36.575,0 0,-114.56 q 0,-14.084 -9.249,-23.333 -9.038,-9.248 -23.122,-9.248 -18.287,0 -31.53,15.555 -13.243,15.344 -13.243,37.205 l 0,94.381 -36.154,0 z"
           style="font-style:normal;font-variant:normal;font-weight:normal;font-stretch:normal;font-family:'Tw Cen MT';-inkscape-font-specification:'Tw Cen MT';letter-spacing:59.87281036px"
           id="path5907" /><path
           d="m -22362.99,10245.012 q 0,-11.351 8.408,-19.549 8.408,-8.408 19.969,-8.408 11.351,0 19.549,8.408 8.408,8.198 8.408,19.549 0,11.561 -8.408,19.759 -8.198,8.198 -19.549,8.198 -11.561,0 -19.969,-8.198 -8.408,-8.198 -8.408,-19.759 z m 10.3,56.964 36.154,0 0,173.417 -36.154,0 0,-173.417 z"
           style="font-style:normal;font-variant:normal;font-weight:normal;font-stretch:normal;font-family:'Tw Cen MT';-inkscape-font-specification:'Tw Cen MT';letter-spacing:59.87281036px"
           id="path5909" /><path
           d="m -22204.322,10202.551 36.364,0 0,175.518 71.889,-76.093 47.296,0 -75.042,80.087 75.882,93.33 -45.193,0 -74.832,-91.648 0,91.648 -36.364,0 0,-272.842 z"
           style="font-style:normal;font-variant:normal;font-weight:normal;font-stretch:normal;font-family:'Tw Cen MT';-inkscape-font-specification:'Tw Cen MT';letter-spacing:59.87281036px"
           id="path5911" /><path
           d="m -21670.901,10322.576 -24.383,21.441 q -9.459,-6.727 -16.396,-10.09 -6.936,-3.573 -16.395,-3.573 -22.282,0 -22.282,16.395 0,11.772 28.167,22.912 28.377,10.931 40.779,24.173 12.402,13.243 12.402,31.951 0,21.861 -17.867,38.257 -17.867,16.185 -42.04,16.185 -36.786,0 -60.328,-34.052 l 28.797,-13.874 q 15.135,14.714 31.531,14.714 11.351,0 19.759,-6.095 8.618,-6.306 8.618,-14.504 0,-14.504 -29.849,-26.065 -29.848,-11.561 -41.409,-23.333 -11.351,-11.981 -11.351,-29.428 0,-21.651 16.185,-35.944 16.396,-14.504 40.99,-14.504 24.593,0 55.072,25.434 z"
           style="font-style:normal;font-variant:normal;font-weight:normal;font-stretch:normal;font-family:'Tw Cen MT';-inkscape-font-specification:'Tw Cen MT';letter-spacing:59.87281036px"
           id="path5913" /><path
           d="m -21581.6,10387.949 q 0,-35.524 27.957,-63.061 28.167,-27.746 64.532,-27.746 37.416,0 65.373,27.326 27.956,27.116 27.956,63.481 0,36.575 -27.536,64.532 -27.326,27.746 -63.271,27.746 -38.466,0 -66.844,-27.536 -28.167,-27.537 -28.167,-64.742 z m 150.505,0 q 0,-22.071 -16.817,-38.257 -16.816,-16.396 -39.938,-16.396 -23.753,0 -40.989,16.606 -17.026,16.396 -17.026,39.308 0,21.861 17.236,38.257 17.447,16.395 40.779,16.395 22.702,0 39.728,-16.816 17.027,-16.816 17.027,-39.097 z"
           style="font-style:normal;font-variant:normal;font-weight:normal;font-stretch:normal;font-family:'Tw Cen MT';-inkscape-font-specification:'Tw Cen MT';letter-spacing:59.87281036px"
           id="path5915" /><path
           d="m -21291.556,10202.551 36.575,0 0,272.842 -36.575,0 0,-272.842 z"
           style="font-style:normal;font-variant:normal;font-weight:normal;font-stretch:normal;font-family:'Tw Cen MT';-inkscape-font-specification:'Tw Cen MT';letter-spacing:59.87281036px"
           id="path5917" /><path
           d="m -21149.075,10301.976 36.575,0 0,97.744 q 0,45.193 39.729,45.193 17.656,0 27.956,-11.981 10.3,-12.192 10.3,-33.212 l 0,-97.744 36.155,0 0,103.63 q 0,32.581 -21.231,53.601 -21.23,21.02 -54.231,21.02 -33.633,0 -54.443,-21.02 -20.81,-21.02 -20.81,-54.862 l 0,-102.369 z"
           style="font-style:normal;font-variant:normal;font-weight:normal;font-stretch:normal;font-family:'Tw Cen MT';-inkscape-font-specification:'Tw Cen MT';letter-spacing:59.87281036px"
           id="path5919" /><path
           d="m -20764.44,10422.422 0,41.83 q -27.957,15.975 -54.232,15.975 -35.945,0 -63.061,-26.906 -26.906,-27.116 -26.906,-62.64 0,-40.358 26.906,-66.844 26.906,-26.695 67.475,-26.695 24.173,0 49.818,12.612 l 0,40.779 q -27.537,-17.657 -52.13,-17.657 -22.702,0 -39.728,15.975 -17.027,15.976 -17.027,37.416 0,24.173 15.976,40.779 15.975,16.396 39.097,16.396 23.543,0 53.812,-21.02 z"
           style="font-style:normal;font-variant:normal;font-weight:normal;font-stretch:normal;font-family:'Tw Cen MT';-inkscape-font-specification:'Tw Cen MT';letter-spacing:59.87281036px"
           id="path5921" /><path
           d="m -20522.954,10301.976 36.575,0 0,173.417 -36.575,0 0,-34.473 q -26.696,39.307 -66.213,39.307 -34.263,0 -58.647,-26.906 -24.173,-26.905 -24.173,-65.372 0,-36.365 24.384,-63.481 24.593,-27.326 57.595,-27.326 20.389,0 38.677,11.141 18.287,11.14 28.377,29.007 l 0,-35.314 z m 4.835,87.234 q 0,-23.753 -17.027,-40.569 -17.026,-17.026 -40.779,-17.026 -23.122,0 -40.358,16.816 -17.237,16.816 -17.237,39.518 0,24.593 16.816,41.83 16.816,17.236 40.779,17.236 23.753,0 40.779,-17.026 17.027,-17.236 17.027,-40.779 z"
           style="font-style:normal;font-variant:normal;font-weight:normal;font-stretch:normal;font-family:'Tw Cen MT';-inkscape-font-specification:'Tw Cen MT';letter-spacing:59.87281036px"
           id="path5923" /><path
           d="m -20377.95,10475.393 0,-173.417 35.735,0 0,28.798 q 15.765,-17.447 28.587,-25.434 12.822,-8.198 28.587,-8.198 23.543,0 40.149,15.555 16.816,15.555 16.816,37.416 l 0,125.28 -36.575,0 0,-114.56 q 0,-14.084 -9.249,-23.333 -9.039,-9.248 -23.122,-9.248 -18.288,0 -31.53,15.555 -13.243,15.344 -13.243,37.205 l 0,94.381 -36.155,0 z"
           style="font-style:normal;font-variant:normal;font-weight:normal;font-stretch:normal;font-family:'Tw Cen MT';-inkscape-font-specification:'Tw Cen MT';letter-spacing:59.87281036px"
           id="path5925" /><path
           d="m -19800.175,10301.976 35.734,0 0,166.48 q 0,36.785 -25.434,62.43 -25.224,25.855 -61.169,25.855 -27.326,0 -50.238,-14.925 -22.912,-14.714 -33.632,-44.983 l 37.836,0 q 17.026,28.167 47.295,28.167 20.6,0 35.104,-14.924 14.504,-14.714 14.504,-35.524 l 0,-32.792 q -26.485,38.467 -66.844,38.467 -33.212,0 -58.016,-27.326 -24.593,-27.536 -24.593,-64.952 0,-37.416 23.963,-64.112 24.173,-26.695 57.385,-26.695 42.881,0 68.105,41.409 l 0,-36.575 z m 5.045,86.393 q 0,-24.383 -17.027,-40.779 -16.816,-16.396 -41.83,-16.396 -22.912,0 -40.358,17.027 -17.447,17.026 -17.447,39.307 0,24.174 17.236,41.62 17.237,17.447 40.99,17.447 24.173,0 41.199,-17.026 17.237,-17.027 17.237,-41.2 z"
           style="font-style:normal;font-variant:normal;font-weight:normal;font-stretch:normal;font-family:'Tw Cen MT';-inkscape-font-specification:'Tw Cen MT';letter-spacing:59.87281036px"
           id="path5927" /><path
           d="m -19653.069,10301.976 36.575,0 0,97.744 q 0,45.193 39.728,45.193 17.657,0 27.957,-11.981 10.3,-12.192 10.3,-33.212 l 0,-97.744 36.155,0 0,103.63 q 0,32.581 -21.231,53.601 -21.23,21.02 -54.232,21.02 -33.632,0 -54.442,-21.02 -20.81,-21.02 -20.81,-54.862 l 0,-102.369 z m 11.561,-57.385 q 0,-9.038 6.517,-15.344 6.516,-6.516 15.765,-6.516 9.038,0 15.555,6.516 6.516,6.306 6.516,15.344 0,9.249 -6.516,15.976 -6.517,6.516 -15.555,6.516 -9.249,0 -15.765,-6.516 -6.517,-6.516 -6.517,-15.976 z m 85.132,0 q 0,-9.038 6.516,-15.344 6.516,-6.516 15.555,-6.516 9.249,0 15.765,6.516 6.516,6.306 6.516,15.344 0,9.46 -6.516,15.976 -6.516,6.516 -15.765,6.516 -9.039,0 -15.555,-6.516 -6.516,-6.727 -6.516,-15.976 z"
           style="font-style:normal;font-variant:normal;font-weight:normal;font-stretch:normal;font-family:'Tw Cen MT';-inkscape-font-specification:'Tw Cen MT';letter-spacing:59.87281036px"
           id="path5929" /><path
           d="m -19392.874,10202.551 36.155,0 0,133.688 q 23.332,-39.097 66.844,-39.097 33.632,0 58.226,26.906 24.803,26.905 24.803,63.901 0,36.995 -24.383,64.742 -24.173,27.536 -56.544,27.536 -20.81,0 -39.518,-11.14 -18.708,-11.141 -29.428,-30.269 l 0,36.575 -36.155,0 0,-272.842 z m 147.351,185.398 q 0,-23.753 -17.026,-40.569 -17.026,-17.026 -41.199,-17.026 -23.333,0 -40.569,17.236 -17.027,17.026 -17.027,40.359 0,24.383 17.027,41.199 17.236,16.606 42.25,16.606 23.122,0 39.728,-17.026 16.816,-17.026 16.816,-40.779 z"
           style="font-style:normal;font-variant:normal;font-weight:normal;font-stretch:normal;font-family:'Tw Cen MT';-inkscape-font-specification:'Tw Cen MT';letter-spacing:59.87281036px"
           id="path5931" /><path
           d="m -19060.16,10301.976 0,35.735 0,0 q 12.192,-21.441 23.753,-30.9 11.771,-9.669 30.479,-9.669 5.255,0 15.135,2.522 l -11.141,36.575 q -10.51,-2.102 -13.873,-2.102 -18.498,0 -31.11,13.033 -12.402,12.822 -12.402,32.161 l 0,96.062 -36.575,0 0,-173.417 35.734,0 z"
           style="font-style:normal;font-variant:normal;font-weight:normal;font-stretch:normal;font-family:'Tw Cen MT';-inkscape-font-specification:'Tw Cen MT';letter-spacing:59.87281036px"
           id="path5933" /><path
           d="m -18723.872,10395.726 -147.982,0 q 4.835,26.696 21.861,39.098 17.237,12.191 37.416,12.191 31.11,0 52.13,-25.854 l 26.695,20.179 q -30.058,38.887 -80.507,38.887 -38.677,0 -64.742,-26.485 -26.065,-26.486 -26.065,-65.793 0,-36.785 26.275,-63.691 26.486,-27.116 64.532,-27.116 37.416,0 64.112,27.536 26.695,27.326 26.275,71.048 z m -144.198,-29.218 105.941,0 q -17.657,-35.734 -52.13,-35.734 -37.626,0 -53.811,35.734 z"
           style="font-style:normal;font-variant:normal;font-weight:normal;font-stretch:normal;font-family:'Tw Cen MT';-inkscape-font-specification:'Tw Cen MT';letter-spacing:59.87281036px"
           id="path5935" /><path
           d="m -18517.279,10322.576 -24.383,21.441 q -9.459,-6.727 -16.396,-10.09 -6.936,-3.573 -16.395,-3.573 -22.282,0 -22.282,16.395 0,11.772 28.167,22.912 28.377,10.931 40.779,24.173 12.402,13.243 12.402,31.951 0,21.861 -17.867,38.257 -17.867,16.185 -42.04,16.185 -36.785,0 -60.328,-34.052 l 28.798,-13.874 q 15.134,14.714 31.53,14.714 11.351,0 19.759,-6.095 8.618,-6.306 8.618,-14.504 0,-14.504 -29.849,-26.065 -29.848,-11.561 -41.409,-23.333 -11.351,-11.981 -11.351,-29.428 0,-21.651 16.185,-35.944 16.396,-14.504 40.99,-14.504 24.593,0 55.072,25.434 z"
           style="font-style:normal;font-variant:normal;font-weight:normal;font-stretch:normal;font-family:'Tw Cen MT';-inkscape-font-specification:'Tw Cen MT';letter-spacing:59.87281036px"
           id="path5937" /><path
           d="m -18425.035,10245.012 q 0,-11.351 8.408,-19.549 8.408,-8.408 19.969,-8.408 11.351,0 19.549,8.408 8.408,8.198 8.408,19.549 0,11.561 -8.408,19.759 -8.198,8.198 -19.549,8.198 -11.561,0 -19.969,-8.198 -8.408,-8.198 -8.408,-19.759 z m 10.3,56.964 36.155,0 0,173.417 -36.155,0 0,-173.417 z"
           style="font-style:normal;font-variant:normal;font-weight:normal;font-stretch:normal;font-family:'Tw Cen MT';-inkscape-font-specification:'Tw Cen MT';letter-spacing:59.87281036px"
           id="path5939" /></g></g><g
       transform="translate(347.11153,-947.88147)"
       id="g6255"><path
         id="path6125"
         d="m -34894.276,-16263.545 -2.749,-21.976 c -6.91,-54 -5.507,-69.453 11.445,-136.08 18.138,-71.166 32.929,-102.8 72.876,-155.694 108.031,-143.244 290.428,-225.323 470.667,-211.679 66.399,5.007 147.461,33.72 208.721,65.805 -259.969,25.793 -437.016,74.568 -465.637,241.874 133.298,-116.977 327.509,-150.659 487.817,-128.013 -14.035,29.01 -41.162,66.736 -88.344,114.657 -111.798,113.475 -242.21,182.475 -397.022,210.254 -38.436,6.844 -194.317,18.963 -259.744,20.156 l -38.004,0.688 z"
         style="fill:#436f14;fill-opacity:1" /><g
         transform="translate(-17933.604,-12321.728)"
         style="fill:#44aa00;fill-opacity:1"
         id="g6127"><path
           id="path6129"
           style="font-style:normal;font-variant:normal;font-weight:normal;font-stretch:normal;font-size:medium;line-height:125%;font-family:'Guayaba Sans - personal use';-inkscape-font-specification:'Guayaba Sans - personal use';letter-spacing:0px;word-spacing:0px;fill:#44aa00;fill-opacity:1;stroke:none;stroke-width:1px;stroke-linecap:butt;stroke-linejoin:miter;stroke-opacity:1"
           d="m -17769.718,-2148.5536 q 275.727,0 367.63,-90.324 107.75,-179.0656 107.75,-450.0313 l 0,-23.7975 q 0,-247.1996 -112.512,-518.1715 -102.999,-169.5529 -396.16,-169.5529 l -74.518,0 q -377.14,0 -480.142,255.1237 -61.833,210.7558 -61.833,423.0942 l 0,4.7537 q 0,354.9542 155.294,507.0827 98.238,60.2159 494.403,61.7858 z m -413.59,-592.6471 q 0,-378.7265 167.973,-442.1072 28.493,-19.0254 164.804,-28.5068 188.574,0 245.617,109.337 74.518,186.9835 74.518,385.062 -20.59,331.1878 -112.504,350.2008 -77.638,23.7975 -183.815,23.7975 -261.466,0 -291.568,-71.311 -64.963,-126.7676 -64.963,-326.4347 z" /><path
           id="path6131"
           style="font-style:normal;font-variant:normal;font-weight:normal;font-stretch:normal;font-size:medium;line-height:125%;font-family:'Guayaba Sans - personal use';-inkscape-font-specification:'Guayaba Sans - personal use';letter-spacing:0px;word-spacing:0px;fill:#44aa00;fill-opacity:1;stroke:none;stroke-width:1px;stroke-linecap:butt;stroke-linejoin:miter;stroke-opacity:1"
           d="m -15410.213,-1803.1062 c 0,-134.1641 -78.718,-219.2074 -236.107,-255.1235 -43.305,0 -91.9,-30.1394 -145.784,-90.3239 88.737,0 171.135,-21.6627 247.197,-64.9693 51.792,-58.0811 86.622,-139.4448 104.587,-244.0349 15.892,-78.1802 23.796,-163.2173 23.796,-255.1234 0,-166.9159 -38.037,-339.6395 -114.093,-518.1716 -68.666,-113.0352 -222.373,-169.5529 -461.123,-169.5529 -64.467,0 -134.694,6.342 -210.756,19.0255 -82.4,-46.465 -123.603,-96.6595 -123.603,-150.5399 0,-58.0811 64.467,-104.0563 193.325,-137.8627 l 160.044,-4.7536 c 230.302,0 372.916,-78.1741 427.85,-234.5222 9.469,-32.7766 14.241,-75.003 14.241,-126.7675 0,-163.7449 -97.191,-273.6092 -291.568,-329.5993 -216.494,-51.9904 -776.017,-14.7558 -816.962,173.7912 200.018,-243.8025 938.704,-94.7634 864.519,160.5612 0,90.8515 -78.718,144.1981 -236.107,160.0466 -273.611,0 -436.299,54.9415 -488.063,164.7995 -28.568,45.3974 -42.819,106.6997 -42.819,183.819 0,86.6257 56.487,161.6349 169.555,225.0156 -113.04,96.1319 -169.555,287.3477 -169.555,573.6341 0,246.1445 51.791,419.3959 155.293,519.7599 76.084,36.9836 189.101,55.4441 339.109,55.4441 l 95.085,0 c 24.293,116.206 66.615,207.5848 126.773,274.1365 27.412,29.5743 114.068,52.8066 259.877,69.7224 l 155.294,1.5842 z m -896.898,-942.8509 c 0,-220.7898 43.802,-360.7686 131.524,-419.9232 52.774,-30.6418 120.417,-45.9627 202.834,-45.9627 126.773,0 210.229,37.4859 250.368,112.5079 46.522,132.0545 69.735,255.651 69.735,370.8024 0,156.3478 -27.996,272.0268 -83.987,347.0299 -46.522,25.3674 -122.021,38.0508 -226.596,38.0508 -167.973,-6.3417 -257.234,-26.9371 -267.798,-61.7856 -50.722,-61.2834 -76.083,-174.84 -76.083,-340.6943 z" /><path
           id="path6133"
           style="font-style:normal;font-variant:normal;font-weight:normal;font-stretch:normal;font-size:medium;line-height:125%;font-family:'Guayaba Sans - personal use';-inkscape-font-specification:'Guayaba Sans - personal use';letter-spacing:0px;word-spacing:0px;fill:#44aa00;fill-opacity:1;stroke:none;stroke-width:1px;stroke-linecap:butt;stroke-linejoin:miter;stroke-opacity:1"
           d="m -14784.287,-2124.7843 q 321.679,0 404.08,-141.0337 39.602,-31.7091 39.602,-326.4344 6.339,-242.4463 6.339,-686.142 l 0,-103.0015 -6.339,-6.3417 q -106.173,0 -218.676,61.7856 -28.492,23.7977 -28.492,64.9692 l 0,58.6462 -3.17,36.4812 q -166.385,-232.9398 -340.689,-232.9398 -280.478,0 -359.71,283.6495 -20.589,93.4949 -22.144,169.5528 6.338,519.7537 25.361,519.7537 52.288,160.0464 163.214,228.1867 93.488,72.8933 305.83,72.8933 l 34.829,0 z m -289.988,-711.4962 q 0,-329.5992 134.694,-329.5992 83.987,0 236.106,126.7675 42.82,42.7602 101.412,126.7673 l -3.169,90.324 -4.754,410.417 q 0,58.6462 -126.772,87.153 l -25.361,0 q -242.447,0 -286.818,-155.2933 -25.361,-80.8112 -25.361,-356.5425 z" /><path
           id="path6135"
           style="font-style:normal;font-variant:normal;font-weight:normal;font-stretch:normal;font-size:medium;line-height:125%;font-family:'Guayaba Sans - personal use';-inkscape-font-specification:'Guayaba Sans - personal use';letter-spacing:0px;word-spacing:0px;fill:#44aa00;fill-opacity:1;stroke:none;stroke-width:1px;stroke-linecap:butt;stroke-linejoin:miter;stroke-opacity:1"
           d="m -13589.481,-2129.5382 61.832,0 q 234.526,0 318.509,-206.0027 22.176,-68.1403 22.176,-137.8626 l 0,-665.5416 q 0,-172.7238 -22.176,-172.7238 -91.911,-72.8934 -236.109,-72.8934 l -6.338,7.9117 0,31.7091 -3.17,814.4966 q 0,142.616 -90.324,166.3821 l -19.023,0 q -85.574,-4.7539 -231.356,-126.7676 -76.084,-82.3998 -98.238,-129.9385 -12.675,-681.3879 -25.361,-681.3879 -87.15,-82.3998 -245.617,-82.3998 l -3.169,0 0,350.2008 3.169,264.6299 -3.169,267.801 0,358.1252 7.923,6.3417 60.191,0 q 137.864,0 185.404,-96.6595 l 6.338,-123.6028 4.754,0 q 156.875,228.1864 313.758,228.1864 z" /><path
           id="path6137"
           style="font-style:normal;font-variant:normal;font-weight:normal;font-stretch:normal;font-size:medium;line-height:125%;font-family:'Guayaba Sans - personal use';-inkscape-font-specification:'Guayaba Sans - personal use';letter-spacing:0px;word-spacing:0px;fill:#44aa00;fill-opacity:1;stroke:none;stroke-width:1px;stroke-linecap:butt;stroke-linejoin:miter;stroke-opacity:1"
           d="m -12961.969,-2134.2921 c 96.133,0 161.632,-30.1395 196.494,-90.324 5.282,0 12.675,-150.0126 22.176,-450.0313 l -15.85,-595.8178 c 0,-61.2834 -85.573,-101.4191 -256.709,-120.4321 l -4.754,3.1691 0,4.7537 4.754,613.2486 -4.754,632.2647 4.754,3.1696 53.886,0 z" /><path
           id="path6139"
           style="font-style:normal;font-variant:normal;font-weight:normal;font-stretch:normal;font-size:medium;line-height:125%;font-family:'Guayaba Sans - personal use';-inkscape-font-specification:'Guayaba Sans - personal use';letter-spacing:0px;word-spacing:0px;fill:#44aa00;fill-opacity:1;stroke:none;stroke-width:1px;stroke-linecap:butt;stroke-linejoin:miter;stroke-opacity:1"
           d="m -12519.859,-1546.3971 q 139.446,0 191.738,-107.7546 19.024,-33.2788 19.024,-179.0593 l 0,-694.0654 141.031,-12.6837 q 133.109,245.6173 198.079,291.5736 87.15,99.8304 158.462,99.8304 l 269.386,0 -63.386,-58.6462 q -45.95,-33.2791 -172.724,-172.7238 l -179.062,-221.845 q 172.724,-107.7545 288.401,-497.5697 52.288,-182.2303 122.017,-234.5221 l 25.35,-50.7345 -244.033,0 q -91.911,0 -161.631,251.9527 -44.374,212.3382 -145.785,280.4782 -141.032,87.1532 -236.11,99.8304 l 0,-454.7844 q 0,-120.432 -145.786,-167.9705 -49.124,-14.2536 -98.249,-14.2536 l -19.023,0 q -9.51,0 -9.51,14.2536 l 0,1424.5762 -14.262,389.8154 q 6.338,9.4813 76.062,14.2534 z" /></g><g
         id="g6141"
         style="font-style:normal;font-weight:normal;font-size:1133.04602051px;line-height:125%;font-family:sans-serif;letter-spacing:0.02684152px;word-spacing:0px;fill:#436f14;fill-opacity:1;stroke:none;stroke-width:1px;stroke-linecap:butt;stroke-linejoin:miter;stroke-opacity:1"
         transform="matrix(1,0,0,-1,-11040.816,-6728.6235)"><path
           id="path6143"
           style="font-style:normal;font-variant:normal;font-weight:bold;font-stretch:normal;font-family:ChicaGogoNFW01-Bold;-inkscape-font-specification:'ChicaGogoNFW01-Bold Bold';letter-spacing:5.36402512px;fill:#436f14;fill-opacity:1"
           d="m -21821.875,9157.0908 q 0,12.7246 -4.426,24.896 -4.426,12.1714 -13.278,21.5766 -9.405,9.9584 -22.683,15.4908 -13.831,6.0857 -32.088,6.0857 -60.304,0 -112.309,22.6831 -52.558,22.683 -91.839,61.9634 -28.215,28.2155 -47.579,62.5167 -19.917,34.3012 -29.322,73.5816 l 279.942,0 q 18.257,0 32.089,5.5325 13.831,6.0857 23.236,15.4908 8.852,9.9584 13.831,22.1298 4.426,12.1714 4.426,24.8961 0,12.7246 -4.426,24.896 -4.979,12.7246 -13.831,22.1298 -9.405,9.9584 -23.236,16.0441 -13.832,6.0857 -32.089,6.0857 l -289.347,0 0,288.794 q 0,18.2571 -5.532,31.5349 -6.086,13.8312 -15.491,22.6831 -9.405,9.4052 -21.577,13.8311 -12.171,4.426 -24.896,4.426 -12.724,0 -24.896,-4.426 -12.724,-4.4259 -22.13,-13.8311 -9.405,-8.8519 -14.937,-22.6831 -6.086,-13.2778 -6.086,-31.5349 l 0,-357.9496 q 0,-87.966 33.748,-165.4203 33.195,-76.9011 91.839,-134.9918 28.768,-28.7688 63.07,-52.0051 33.748,-23.2363 71.922,-39.8336 38.173,-16.0441 80.22,-24.8961 41.493,-8.8519 85.2,-8.8519 18.257,0 32.088,5.5325 13.278,6.0857 22.683,15.4908 8.852,9.9584 13.278,22.1298 l 4.426,26.0026 z" /><path
           id="path6145"
           style="font-style:normal;font-variant:normal;font-weight:bold;font-stretch:normal;font-family:ChicaGogoNFW01-Bold;-inkscape-font-specification:'ChicaGogoNFW01-Bold Bold';letter-spacing:5.36402512px;fill:#436f14;fill-opacity:1"
           d="m -21300.333,9593.0479 0,-218.5318 q 0,-30.9817 -11.618,-58.0907 -11.619,-27.1091 -32.089,-47.5791 -20.47,-20.4701 -47.579,-32.0882 -27.109,-11.6182 -58.091,-11.6182 -30.981,0 -58.09,11.6182 -27.109,12.1714 -47.579,32.6414 -20.47,20.4701 -32.089,47.5791 -12.171,27.109 -12.171,57.5375 l 0,218.5318 299.306,0 z m 137.204,278.8356 q 0,18.2571 -5.532,31.5349 -6.086,13.8312 -15.491,22.6831 -9.958,9.4052 -22.13,13.8311 -12.171,4.426 -24.896,4.426 -13.278,0 -25.449,-4.426 -12.725,-4.4259 -22.13,-13.8311 -9.958,-8.8519 -15.491,-22.6831 -6.085,-13.2778 -6.085,-31.5349 l 0,-142.7373 -299.306,0 0,142.7373 q 0,18.2571 -5.532,31.5349 -6.086,13.8312 -15.491,22.6831 -9.405,9.4052 -21.577,13.8311 -12.171,4.426 -24.896,4.426 -12.724,0 -24.896,-4.426 -12.725,-4.4259 -22.13,-13.8311 -9.405,-8.8519 -14.937,-22.6831 -6.086,-13.2778 -6.086,-31.5349 l 0,-497.3674 q 0,-59.1972 22.683,-111.2023 22.683,-52.005 61.41,-91.2854 38.727,-38.7272 90.732,-61.4102 52.005,-22.6831 110.649,-22.6831 58.644,0 111.203,22.6831 52.005,22.683 91.285,61.4102 38.727,39.2804 61.41,91.2854 22.683,52.0051 22.683,111.2023 l 0,497.3674 z" /><path
           id="path6147"
           style="font-style:normal;font-variant:normal;font-weight:bold;font-stretch:normal;font-family:ChicaGogoNFW01-Bold;-inkscape-font-specification:'ChicaGogoNFW01-Bold Bold';letter-spacing:5.36402512px;fill:#436f14;fill-opacity:1"
           d="m -20719.041,9684.8866 q 0,-24.896 -9.405,-46.4726 -9.405,-21.5765 -25.45,-37.6206 -16.044,-16.0442 -37.62,-25.4493 -21.577,-9.4052 -46.473,-9.4052 l -101.244,0 0,237.8954 101.244,0 q 24.896,0 46.473,-9.4052 21.576,-9.4051 37.62,-26.0025 16.045,-16.0441 25.45,-37.6206 l 9.405,-45.9194 z m -19.364,-357.9496 q 0,-20.4701 -7.745,-39.2804 -8.299,-18.2571 -22.13,-32.6415 -14.384,-13.8311 -32.641,-22.1298 -18.811,-7.7454 -39.281,-7.7454 l -99.031,0 0,203.5942 99.031,0 q 20.47,0 39.281,-8.2987 18.257,-7.7454 32.641,-22.1298 13.831,-13.8311 22.13,-32.0882 l 7.745,-39.2804 z m 156.569,357.9496 q 0,52.5583 -19.917,99.0309 -20.47,46.4726 -55.325,80.7738 -34.854,34.8544 -81.327,54.7712 -47.026,20.4701 -99.584,20.4701 l -168.74,0 q -12.724,0 -24.896,-6.0857 -12.724,-5.5324 -22.129,-14.9376 -9.406,-9.4052 -14.938,-22.1298 -6.086,-12.1714 -6.086,-24.896 l 0,-714.7927 q 0,-13.2779 6.086,-26.0026 5.532,-12.1714 14.938,-22.1298 9.405,-9.4051 22.129,-15.4908 12.172,-5.5325 24.896,-5.5325 l 166.527,0 q 48.686,0 92.392,18.8104 43.153,18.8103 75.795,50.8985 32.088,32.6415 50.898,76.3478 18.811,43.7064 18.811,92.9452 0,48.6856 -17.704,90.7322 -17.704,42.0466 -49.239,74.6881 41.493,36.5142 64.73,86.8595 l 22.683,105.6698 z" /><path
           id="path6149"
           style="font-style:normal;font-variant:normal;font-weight:bold;font-stretch:normal;font-family:ChicaGogoNFW01-Bold;-inkscape-font-specification:'ChicaGogoNFW01-Bold Bold';letter-spacing:5.36402512px;fill:#436f14;fill-opacity:1"
           d="m -20133.876,9342.9811 q 0,-24.3428 -9.405,-45.9193 -9.406,-21.0233 -25.45,-37.0674 -16.044,-16.0442 -37.067,-25.4493 -21.577,-9.4052 -45.919,-9.4052 l -108.99,0 0,234.5759 108.99,0 q 23.236,0 44.812,-9.4051 21.024,-8.8519 37.621,-24.8961 16.044,-15.4908 26.003,-37.0674 l 9.405,-45.3661 z m 168.74,534.4348 q 0,14.3844 -5.533,26.0025 -6.086,12.1714 -15.491,21.0234 -9.405,8.8519 -21.576,13.8311 -12.725,4.9792 -26.556,4.9792 -15.491,0 -29.875,-7.1922 -14.938,-7.1922 -27.663,-24.3428 l -225.724,-315.3497 -43.153,0 0,275.5161 q 0,18.2571 -5.532,31.5349 -6.086,13.8312 -15.491,22.6831 -9.405,9.4052 -21.577,13.8311 -12.171,4.426 -24.896,4.426 -12.724,0 -24.896,-4.426 -12.724,-4.4259 -22.129,-13.8311 -9.406,-8.8519 -14.938,-22.6831 -6.086,-13.2778 -6.086,-31.5349 l 0,-714.7927 q 0,-13.2779 6.086,-26.0026 5.532,-12.1714 14.938,-22.1298 9.405,-9.4051 22.129,-15.4908 12.172,-5.5325 24.896,-5.5325 l 176.486,0 q 52.005,0 98.477,19.9168 46.473,20.4701 80.774,54.7713 34.301,34.8545 54.771,81.327 19.917,46.4726 19.917,99.0309 0,39.2804 -11.618,75.2414 -12.171,35.9609 -33.195,66.3894 -21.576,30.9817 -51.452,55.3245 -30.428,24.3428 -66.942,39.8336 l 180.358,252.2798 q 8.298,12.1714 12.171,23.2363 l 3.32,22.1298 z" /><path
           id="path6151"
           style="font-style:normal;font-variant:normal;font-weight:bold;font-stretch:normal;font-family:ChicaGogoNFW01-Bold;-inkscape-font-specification:'ChicaGogoNFW01-Bold Bold';letter-spacing:5.36402512px;fill:#436f14;fill-opacity:1"
           d="m -19719.664,9871.8835 q 0,18.2571 -5.532,31.5349 -6.086,13.8312 -15.491,22.6831 -9.406,9.4052 -21.577,13.8311 -12.171,4.426 -24.896,4.426 -12.725,0 -24.896,-4.426 -12.725,-4.4259 -22.13,-13.8311 -9.405,-8.8519 -14.937,-22.6831 -6.086,-13.2778 -6.086,-31.5349 l 0,-481.3233 q 0,-18.2571 6.086,-32.0882 5.532,-13.2779 14.937,-22.6831 9.405,-8.8519 22.13,-13.2778 12.171,-4.426 24.896,-4.426 12.725,0 24.896,4.426 12.171,4.4259 21.577,13.2778 9.405,9.4052 15.491,22.6831 5.532,13.8311 5.532,32.0882 l 0,481.3233 z m 22.683,-678.8318 q 0,18.8103 -7.192,34.8544 -7.192,16.5974 -19.364,28.7688 -12.171,12.7246 -28.215,19.9168 -16.598,7.1922 -35.408,7.1922 -18.81,0 -35.408,-7.1922 -16.597,-7.1922 -28.768,-19.9168 -12.172,-12.1714 -19.364,-28.7688 -7.192,-16.0441 -7.192,-34.8544 0,-18.8103 7.192,-35.4077 7.192,-16.0441 19.364,-28.2155 12.171,-12.1714 28.768,-19.3636 16.598,-7.1922 35.408,-7.1922 18.81,0 35.408,7.1922 16.044,7.1922 28.215,19.3636 12.172,12.1714 19.364,28.2155 l 7.192,35.4077 z" /><path
           id="path6153"
           style="font-style:normal;font-variant:normal;font-weight:bold;font-stretch:normal;font-family:ChicaGogoNFW01-Bold;-inkscape-font-specification:'ChicaGogoNFW01-Bold Bold';letter-spacing:5.36402512px;fill:#436f14;fill-opacity:1"
           d="m -19038.234,9876.3094 q 0,13.8312 -4.98,26.0025 -5.532,12.1714 -14.384,21.0234 -9.405,9.4051 -21.577,14.3843 -12.171,5.5325 -26.002,5.5325 -12.725,0 -26.003,-5.5325 -13.831,-4.9792 -26.002,-17.1506 l -316.456,-314.7964 0,266.1109 q 0,18.2571 -5.533,31.5349 -6.085,13.8312 -15.491,22.6831 -9.405,9.4052 -21.576,13.8311 -12.172,4.426 -24.896,4.426 -12.725,0 -24.896,-4.426 -12.725,-4.4259 -22.13,-13.8311 -9.405,-8.8519 -14.938,-22.6831 -6.085,-13.2778 -6.085,-31.5349 l 0,-714.7927 q 0,-18.2571 6.085,-32.0883 5.533,-13.8311 14.938,-23.2363 9.405,-8.8519 22.13,-13.8311 12.171,-4.4259 24.896,-4.4259 12.724,0 24.896,4.4259 12.171,4.9792 21.576,13.8311 9.406,9.4052 15.491,23.2363 5.533,13.8312 5.533,32.0883 l 0,222.9577 273.303,-271.6433 q 12.724,-12.7246 26.002,-18.2571 13.278,-5.5324 26.003,-5.5324 13.831,0 26.002,5.5324 12.172,5.5325 21.577,14.9376 9.405,9.4052 14.937,21.5766 5.533,12.1714 5.533,26.0025 0,12.7246 -5.533,26.0025 -5.532,13.2779 -18.257,26.0025 l -288.794,287.6875 330.841,330.8406 q 12.725,12.7246 18.257,26.0025 l 5.533,27.109 z" /><path
           id="path6155"
           style="font-style:normal;font-variant:normal;font-weight:bold;font-stretch:normal;font-family:ChicaGogoNFW01-Bold;-inkscape-font-specification:'ChicaGogoNFW01-Bold Bold';letter-spacing:5.36402512px;fill:#436f14;fill-opacity:1"
           d="m -18516.14,9593.0479 0,-218.5318 q 0,-30.9817 -11.618,-58.0907 -11.618,-27.1091 -32.088,-47.5791 -20.47,-20.4701 -47.579,-32.0882 -27.109,-11.6182 -58.091,-11.6182 -30.982,0 -58.091,11.6182 -27.109,12.1714 -47.579,32.6414 -20.47,20.4701 -32.088,47.5791 -12.171,27.109 -12.171,57.5375 l 0,218.5318 299.305,0 z m 137.205,278.8356 q 0,18.2571 -5.532,31.5349 -6.086,13.8312 -15.491,22.6831 -9.959,9.4052 -22.13,13.8311 -12.171,4.426 -24.896,4.426 -13.278,0 -25.449,-4.426 -12.725,-4.4259 -22.13,-13.8311 -9.958,-8.8519 -15.491,-22.6831 -6.086,-13.2778 -6.086,-31.5349 l 0,-142.7373 -299.305,0 0,142.7373 q 0,18.2571 -5.533,31.5349 -6.085,13.8312 -15.491,22.6831 -9.405,9.4052 -21.576,13.8311 -12.171,4.426 -24.896,4.426 -12.725,0 -24.896,-4.426 -12.725,-4.4259 -22.13,-13.8311 -9.405,-8.8519 -14.938,-22.6831 -6.085,-13.2778 -6.085,-31.5349 l 0,-497.3674 q 0,-59.1972 22.683,-111.2023 22.683,-52.005 61.41,-91.2854 38.727,-38.7272 90.732,-61.4102 52.005,-22.6831 110.649,-22.6831 58.644,0 111.202,22.6831 52.006,22.683 91.286,61.4102 38.727,39.2804 61.41,91.2854 22.683,52.0051 22.683,111.2023 l 0,497.3674 z" /></g><path
         id="path6157"
         d="m -30842.745,-14417.888 c 2.212,8.037 -10.195,114.46 -19.757,169.477 -18.894,108.402 -47.613,194.958 -89.612,270.043 -38.328,68.329 -23.213,54.753 20.73,-18.649 54.414,-90.958 91.447,-196.841 120.317,-343.664 l 16.195,-82.513 16.195,25.87 c 39.407,63.035 69.098,151.036 76.115,225.179 17.059,179.944 -61.54,363.87 -202.705,474.594 -52.148,40.877 -83.458,56.323 -154.284,75.769 -66.291,18.21 -81.73,19.842 -135.81,14.003 l -22.025,-2.377 -0.04,-38.051 c -0.06,-65.434 9.092,-221.512 15.223,-260.084 24.833,-155.318 91.34,-287.015 202.674,-400.942 52.903,-54.188 104.835,-95.566 131.902,-105.079 16.95,-5.983 23.968,-6.97 24.94,-3.613 z"
         style="fill:#436f14;fill-opacity:1" /><path
         id="path5989"
         d="m -34242.808,-14180.675 c -19.085,-0.01 -38.619,-1.687 -58.396,-4.756 l 0.313,0.149 c -106.878,-16.515 -221.688,-73.151 -314.572,-123.109 -19.354,-12.017 -31.341,-20.244 -41.558,-28.528 -25.617,-20.882 -50.007,-43.426 -73.135,-67.483 61.418,-19.475 130.709,-43.869 211.747,-74.528 4.289,4.216 8.815,7.998 15.992,13.788 6.279,4.993 13.422,11.297 27.651,23.977 18.962,16.982 26.526,23.173 71.584,58.9 4.013,3.188 10.186,8.278 13.77,11.355 6.859,5.842 10.471,8.454 22.02,15.779 37.148,23.704 106.35,74.596 122.434,90.102 14.134,13.549 23.824,31.924 27.096,51.183 2.058,12.186 -1.549,22.995 -9.535,28.712 -4.014,2.849 -8.6,4.171 -15.411,4.459 z m -518.85,-258.322 c -53.708,-62.274 -99.713,-133.236 -137.405,-210.786 67.512,-18.439 144.077,-43.38 237.055,-77.361 -0.747,16.489 -2.104,40.525 -2.588,43.541 -0.333,2.084 -0.105,2.771 2.201,6.659 1.437,2.371 4.503,7.134 6.825,10.527 2.31,3.445 5.393,8.839 6.81,12.011 2.53,5.668 3.876,9.35 10.951,30.322 6.204,18.297 9.443,24.08 22.356,39.67 l 15.052,18.44 c 14.733,18.315 22.366,26.437 32.941,35.116 -72.806,39.188 -135.466,69.235 -194.198,91.861 z m -153.993,-246.53 c -39.315,-88.917 -68.112,-185.682 -85.522,-287.376 87.668,1.066 181.619,-6.339 308.871,-26.914 3.124,7.019 3.868,10.76 3.808,16.358 -0.129,6.338 -1.721,10.954 -6.474,18.738 -3.823,6.266 -3.756,8.179 0.85,19.627 3.375,8.281 6.535,18.742 7.423,24.383 1.979,12.121 -0.151,25.406 -5.734,35.738 l -1.912,3.94 c -0.118,0.733 3.157,9.652 6.915,18.62 4.939,11.945 6.808,18.446 7.598,26.364 1.031,10.172 -0.631,19.207 -5.439,29.6 -1.996,4.319 -3.086,7.479 -4.065,11.831 l -1.34,5.96 3.77,2.802 c 1.006,0.754 1.913,1.491 2.75,2.231 -87.438,45.505 -160.482,77.051 -231.499,98.098 z m -27.948,-327.307 c -20.807,-0.02 -41.828,-0.797 -63.354,-2.291 -2.981,-33.54 -3.683,-46.442 -3.965,-67.15 -1.083,-83.741 -7.77,-157.967 -21.317,-235.895 -0.573,-3.276 -0.999,-5.702 -1.417,-8.071 98.764,24.948 196.359,39.803 337.351,44.904 -0.673,3.479 -2.29,7.026 -4.858,10.583 -2.658,3.689 -8.933,10.995 -10.479,12.258 -1.155,0.919 -1.158,0.945 -0.113,1.911 3.233,3.005 5.243,7.538 5.225,11.834 0,1.755 0.369,2.53 1.935,4.088 2.145,2.11 3.132,3.812 4.437,7.539 0.745,2.128 0.747,3.196 0.03,7.64 -0.957,5.971 -2,7.834 -8.095,14.439 -2.002,2.146 -3.68,4.439 -3.798,5.176 -0.234,1.466 1.759,4.27 7.176,10.011 3.422,3.624 6.008,8.077 8.45,14.357 3.201,8.254 2.79,12.774 -2.465,27.651 -1.94,5.474 -3.608,10.468 -3.705,11.078 -0.119,0.735 0.47,1.715 1.727,2.87 4.679,4.346 8.565,10.573 11.034,18.083 2.054,6.062 2.442,9.589 1.627,14.67 -0.896,5.588 -2.541,9.129 -6.96,14.908 -3.611,4.737 -6.504,9.537 -6.765,11.163 -0.08,0.478 0.919,1.541 2.373,2.546 1.476,1.037 3.789,3.552 5.795,6.323 2.786,3.861 3.626,5.61 5.242,10.899 1.174,3.777 1.86,7.307 2.057,10.648 -94.901,26.004 -174.372,37.899 -257.172,37.828 z m 205.978,-311.11 c -106.23,-0.131 -196.984,-17.523 -306.412,-54.378 -14.339,-65.308 -33.892,-129.216 -57.368,-187.925 -5.089,-12.701 -10.878,-26.216 -16.921,-39.592 93.266,25.394 191.289,30.301 380.765,8.987 0.739,1.428 1.355,2.924 1.836,4.48 2.869,8.955 1.067,18.149 -5.573,28.422 l -2.523,4.103 c -0.03,0.145 0.783,0.686 1.792,1.202 5.381,2.771 9.69,7.183 13.245,13.511 5.153,9.218 6.529,15.171 5.531,23.896 -1.164,10.21 -3.66,16.063 -8.777,20.635 l -2.568,2.299 2.794,1.871 c 4.042,2.731 7.677,7.721 11.164,15.315 6.333,13.861 7.099,20.264 3.612,29.434 -1.68,4.343 -3.902,7.635 -7.519,11.119 -2.748,2.608 -5.533,6.278 -5.777,7.516 -0.05,0.315 1.094,0.914 2.555,1.328 4.063,1.172 9.097,5.028 12.202,9.408 6.745,9.343 8.372,24.066 3.77,34.318 -1.528,3.404 -5.406,9.373 -7.486,11.463 -0.688,0.699 -1.561,2.21 -1.939,3.364 l -0.685,2.083 2.003,0.321 c 4.883,0.839 10.942,4.961 12.917,8.848 1.527,2.954 5.52,15.581 5.898,18.533 0.902,6.958 -0.237,12.208 -4.6,18.971 -10.815,0.321 -21.454,0.481 -31.936,0.468 z m -230.281,-298.683 c -60.74,-0.08 -115.376,-14.209 -179.704,-42.635 -0.475,-0.866 -0.956,-1.756 -1.424,-2.598 l -5.318,-9.581 -7.747,-13.438 c -24.791,-42.085 -51.798,-79.8 -81.109,-113.293 64.541,-72.729 129.157,-155.048 205.29,-265.045 0.825,0.647 1.453,1.136 2.408,1.886 47.644,37.716 91.084,82.185 134.641,137.803 8.989,11.552 34.236,46.315 44.205,60.984 16.23,23.945 31.101,47.145 32.932,51.371 1.508,3.525 1.975,8.134 1.261,12.579 -0.994,6.199 0.101,7.937 8.17,13.036 8.774,5.629 14.148,12.901 16.22,22.328 0.455,2.039 0.194,10.323 -0.371,11.613 -0.621,1.412 0.132,4.113 1.667,6.027 0.698,0.861 2.838,2.851 4.759,4.411 4.162,3.378 8.726,9.556 10.322,13.852 2.044,5.407 2.366,9.811 1.329,17.905 -0.637,4.953 -0.759,7.617 -0.39,8.432 0.296,0.662 1.596,1.799 2.889,2.531 8.785,5.007 14.272,12.688 14.76,20.818 0.277,4.083 -1.009,10.182 -3.305,15.65 l -2.043,5.327 3.843,2.507 c -82.318,25.006 -145.573,37.608 -203.285,37.53 z m -315.292,-223.261 c -19.503,-18.529 -39.907,-35.451 -61.254,-50.773 -36.048,-25.849 -75.914,-48.48 -118.086,-67.182 34.617,-80.877 68.984,-173.347 106.676,-289.408 80.894,27.654 158.522,69.341 223.822,120.575 4.416,3.471 10.157,7.337 14.546,9.865 15.53,8.895 28.679,17.116 42.914,26.869 -65.725,97.363 -131.408,175.136 -208.618,250.054 z m -226.548,-136.896 c -16.593,-5.972 -33.439,-11.339 -50.457,-16.057 -68.398,-22.116 -138.794,-45.974 -208.413,-71.959 27.635,-70.443 55.785,-150.503 86.215,-246.037 90.731,9.547 179.452,17.36 255.581,42.191 3.075,1.218 10.462,3.48 16.485,5.038 3.149,0.814 6.296,1.652 9.441,2.51 -31.517,108.786 -66.182,198.837 -108.852,284.314 z m -302.901,-104.79 c -75.665,-29.432 -149.7,-61.51 -218.458,-96.756 23.654,-55.952 47.262,-117.559 71.961,-188.635 71.722,28.562 150.006,41.518 228.184,50.749 -24.653,88.221 -51.076,164.092 -81.687,234.642 z m -262.719,-120.31 c -76.679,-42.405 -145.245,-89.191 -200.043,-141.167 23.228,-63.079 47.154,-133.922 72.768,-215.787 11.27,14.456 16.705,20.305 27.71,29.57 19.602,16.615 26.638,23.581 34.676,34.358 8.518,11.424 16.884,19.879 34.743,35.065 l 17.069,14.541 c 27.277,24.257 56.772,43.767 87.871,59.631 -22.449,66.472 -46.899,126.331 -74.794,183.789 z m -235.062,-177.258 c -17.553,-19.764 -33.121,-40.235 -46.428,-61.455 -17.219,-28.958 -17.461,-29.401 -25.534,-40.527 -7.835,-10.923 -11.694,-18.708 -24.92,-50.489 l -13.792,-32.452 c -10.657,-24.614 -14.341,-34.046 -21.669,-53.439 -6.455,-17.294 -8.52,-22.576 -15.651,-39.288 -6.062,-14.157 -6.609,-16.616 -10.564,-43.906 -1.876,-13.017 -3.625,-27.124 -4.108,-31.653 l 0.214,-0.411 c -0.375,-4.437 -1.068,-17.16 -1.475,-28.222 -0.745,-18.23 -0.943,-20.555 -2.077,-24.203 -0.826,-2.816 -1.764,-8.829 -3.024,-19.403 -2.041,-17.16 -2.005,-22.418 0.06,-28.846 2.719,-8.19 10.831,-14.443 20.412,-15.798 9.897,-1.357 28.388,4.023 42.158,12.314 5.722,3.427 13.032,9.254 18.16,14.429 12.577,12.649 61.243,81.204 85.303,119.97 12.369,20.095 14.739,23.471 19.553,29.216 1.984,2.34 11.443,14.682 21.143,27.39 14.559,19.179 23.854,31.285 30.917,40.093 -21.4,85.274 -43.716,159.146 -68.677,226.68 z"
         style="fill:#782121;fill-opacity:1" /></g></g></svg>